<svg id="Layer_1" data-name="Layer 1" xmlns="http://www.w3.org/2000/svg" viewBox="0 0 656.16 167.63"><defs><style>.cls-1{font-size:97.53px;}.cls-1,.cls-2,.cls-4{fill:#fff;}.cls-1,.cls-2{font-family:Sequel100Black-95;}.cls-2{font-size:60.48px;}.cls-3{letter-spacing:-0.03em;}</style></defs><text class="cls-1" transform="translate(0 83.58)">HEIGHT</text><text class="cls-2" transform="translate(1.16 135.46)"><tspan xml:space="preserve">M   </tspan></text><text class="cls-2" transform="translate(148.31 135.46)"><tspan class="cls-3">S</tspan><tspan x="65.2" y="0">TERING</tspan></text><polygon class="cls-4" points="80.26 135.47 102.71 92.29 115.28 92.29 115.28 108.21 109.91 119.14 115.28 119.14 115.28 130.46 104.29 130.46 101.86 135.47 80.26 135.47"/><polygon class="cls-4" points="152.44 135.47 130 92.29 117.43 92.29 117.43 108.21 122.8 119.14 117.43 119.14 117.43 130.46 128.41 130.46 130.85 135.47 152.44 135.47"/><path class="cls-4" d="M734.35,275.39c-6.43,1.08-8.84-.42-8.84-.42,2.08-1.4,7.85-.58,7.85-.58l-.7-.71a49,49,0,0,1-12.85-.84c2.43-.84,11.26-.77,11.26-.77l-.79-.79a4.25,4.25,0,0,1-2.46-.8c.12-.4,1-.68,1-.68l-26.47-26.27-53.92,54.14h30.41v67.49s46.08.44,47.15,0a15.43,15.43,0,0,1,3.55-.54v-.42a2.41,2.41,0,0,1-1.72-.77,2.06,2.06,0,0,1,1.7-.76v-.42a82.77,82.77,0,0,1-13.64-.87c1.79-.81,13.67-.88,13.67-.88v-.3a13.15,13.15,0,0,1-5.64-.93c1.4-.79,5.63-.75,5.63-.75V358a2.6,2.6,0,0,1-1.72-.78,2.46,2.46,0,0,1,1.72-.74v-.58a9.49,9.49,0,0,1-4.14-.77c1.14-1,4.1-.88,4.1-.88v-2.43c-3.3,0-4.07-.86-4.07-.86,1.44-1,4.12-.81,4.12-.81v-.42a93,93,0,0,1-13.67-.77c2.36-.83,13.67-.95,13.67-.95v-.24c-3.94,0-4.94-.92-4.94-.92a12.87,12.87,0,0,1,4.91-.79v-.4c-7.17,0-9.72-.79-9.72-.79,2.34-1.1,9.72-.91,9.72-.91v-.35c-3,0-4-.79-4-.79.21-.68,4.07-.84,4.07-.84v-.39a2.11,2.11,0,0,1-1.73-.82c.38-.77,1.73-.81,1.73-.81l0-.8c-7.4,0-8-.78-8-.78.93-.87,8-.85,8-.85l0-.36a3.27,3.27,0,0,1-2.51-.87,4.63,4.63,0,0,1,2.48-.79V335a2.12,2.12,0,0,1-1.72-.77,2.7,2.7,0,0,1,1.77-.82V333a.73.73,0,1,1-.07-1.42V331c-7.28,0-8.4-.76-8.4-.76,1.09-.7,8.38-.89,8.38-.89V329c-12.68.09-17.66-.87-17.66-.87,3.37-1,17.72-.81,17.72-.81v-.47c-7.94-.08-9.61-.78-9.61-.78,1.65-.89,9.57-.84,9.57-.84v-.34c-13.84-.14-14.47-.87-14.47-.87,2.76-.84,14.52-.73,14.52-.73l0-.48c-4,.43-25.61-.8-25.61-.8.54-.72,25.61-.84,25.61-.84v-.32c-4.87.19-22.56-.86-22.56-.86,1.3-.86,22.56-.79,22.56-.79v-.45C723.38,319,712,318,712,318c1.17-.74,17.54-.86,17.54-.86v-.29a30,30,0,0,1-7.32-.79c1.89-.86,7.31-.87,7.31-.87v-.49c-2.74.42-22.41-.73-22.41-.73,2.1-.71,22.42-.9,22.42-.9v-.26c-6.55,0-31.31-.88-31.31-.88,4.42-1.17,31.33-.79,31.33-.79v-.42c-5.29.16-43.41-.86-43.41-.86.89-.56,43.45-.8,43.45-.8l0-.32c-8.7,0-22.55-.91-22.55-.91,2.56-1,22.45-.76,22.45-.76v-.42c-9.91,0-13.59-.91-13.59-.91,2.33-.94,13.6-.83,13.6-.83v-.32c-4.58-.22-5.72-.86-5.72-.86,1.56-.87,5.74-.76,5.74-.76v-.4c-11.5,0-13.68-.88-13.68-.88,1.62-.89,13.66-.84,13.66-.84v-.33c-4.49,0-5.73-.88-5.73-.88a15,15,0,0,1,5.73-.79v-.51a2.6,2.6,0,0,1-1.66-.74,3.61,3.61,0,0,1,4.77,0h23.87Zm-1.7,1.54s-2.52,2.21-4.73,0A3.87,3.87,0,0,1,732.65,276.93Zm-1.55,2.2s-.75,1.85-1.65,0C729.45,279.13,730.31,277.19,731.1,279.13Zm1.66,2a4.18,4.18,0,0,1-4.92,0A3.93,3.93,0,0,1,732.76,281.12Zm2.32,2a13.25,13.25,0,0,1-9.63,0A13.13,13.13,0,0,1,735.08,283.14Zm5.74,2a64.68,64.68,0,0,1-21,0A64.78,64.78,0,0,1,740.82,285.16Zm-4.9,2a17.89,17.89,0,0,1-11.25,0A18.84,18.84,0,0,1,735.92,287.17Zm-19.9,2s16.62-2,28.64,0C744.66,289.21,729.37,291.24,716,289.21Zm9.43,2.06s4.95-1.88,9.63,0A13.46,13.46,0,0,1,725.45,291.27Zm5.67,2.16s-.68,1.83-1.67,0C729.45,293.43,730.24,291.36,731.12,293.43Zm-5.67,2a13.42,13.42,0,0,1,9.7,0A15.36,15.36,0,0,1,725.45,295.47Z" transform="translate(-100.39 -229.59)"/></svg>