<svg xmlns="http://www.w3.org/2000/svg" width="45.927" height="45.927" viewBox="0 0 45.927 45.927">
  <path id="icons8-instagram" d="M16.392,3A13.411,13.411,0,0,0,3,16.4V35.535A13.411,13.411,0,0,0,16.4,48.926H35.535a13.411,13.411,0,0,0,13.392-13.4V16.391A13.411,13.411,0,0,0,35.528,3Zm22.967,7.654a1.914,1.914,0,1,1-1.914,1.914A1.914,1.914,0,0,1,39.359,10.654Zm-13.4,3.827A11.482,11.482,0,1,1,14.482,25.963,11.493,11.493,0,0,1,25.963,14.482Zm0,3.827a7.654,7.654,0,1,0,7.654,7.654,7.654,7.654,0,0,0-7.654-7.654Z" transform="translate(-3 -3)" fill="#fff"/>
</svg>
